<?xml version="1.0" standalone="no"?>
<!DOCTYPE svg PUBLIC "-//W3C//DTD SVG 20010904//EN"
 "http://www.w3.org/TR/2001/REC-SVG-20010904/DTD/svg10.dtd">
<svg version="1.0" xmlns="http://www.w3.org/2000/svg"
 width="465.000000pt" height="235.000000pt" viewBox="0 0 465.000000 235.000000"
 preserveAspectRatio="xMidYMid meet">

<g transform="translate(0.000000,235.000000) scale(0.100000,-0.100000)"
fill="#000000" stroke="none">
<path d="M2288 2109 c-26 -15 -25 -85 1 -99 26 -14 74 -13 89 2 20 20 15 86
-7 98 -25 13 -61 12 -83 -1z"/>
<path d="M2192 1939 c-288 -28 -527 -150 -593 -303 -117 -274 360 -525 886
-466 354 40 611 212 593 397 -6 66 -33 117 -90 173 -107 105 -300 177 -535
200 -119 11 -140 11 -261 -1z m293 -30 c185 -23 348 -86 443 -174 66 -60 91
-111 92 -183 0 -127 -115 -237 -322 -306 -106 -36 -112 -35 -136 22 -26 61
-52 150 -52 178 0 19 8 23 68 34 86 15 146 41 167 74 16 24 16 28 2 50 -34 51
-139 72 -212 42 -40 -17 -73 -65 -81 -119 l-7 -38 -116 3 -115 3 -8 45 c-5 31
-18 55 -43 80 -34 34 -38 35 -108 35 -60 0 -78 -4 -105 -24 -27 -19 -33 -29
-30 -54 4 -43 51 -72 149 -93 72 -16 79 -20 79 -41 0 -39 -62 -214 -77 -220
-23 -9 -130 24 -219 67 -137 66 -214 159 -214 260 0 65 18 108 71 165 54 59
133 106 239 142 73 26 122 36 260 57 55 8 190 5 275 -5z m-367 -302 c18 -17
42 -72 42 -99 0 -24 -140 12 -171 43 -24 24 -24 35 1 57 41 34 88 34 128 -1z
m563 2 c11 -11 19 -28 17 -37 -4 -22 -81 -59 -140 -68 -45 -6 -48 -5 -48 15 0
33 26 88 47 100 32 18 101 13 124 -10z m-219 -211 c9 -37 28 -95 41 -128 14
-33 21 -63 16 -66 -5 -3 -58 -8 -117 -11 -132 -7 -262 4 -262 21 0 7 11 40 25
74 13 33 29 82 35 109 6 26 12 53 14 58 2 6 50 10 117 10 l114 0 17 -67z"/>
<path d="M1520 1905 c-17 -20 -9 -27 66 -54 74 -27 129 -25 129 3 0 14 -15 26
-55 42 -65 27 -122 30 -140 9z"/>
<path d="M3000 1896 c-40 -16 -55 -28 -55 -42 0 -28 56 -30 129 -4 74 27 83
34 66 55 -18 21 -75 18 -140 -9z"/>
<path d="M1375 1585 c-5 -2 -23 -6 -38 -9 -20 -5 -27 -12 -25 -24 3 -14 18
-18 88 -22 47 -3 95 -4 108 -2 26 4 40 28 25 43 -9 9 -139 21 -158 14z"/>
<path d="M3152 1582 c-26 -4 -40 -28 -25 -43 11 -11 195 -15 212 -4 23 14 10
35 -28 45 -37 10 -105 11 -159 2z"/>
<path d="M1536 1300 c-71 -23 -84 -33 -66 -55 17 -20 49 -19 131 5 76 23 91
36 64 57 -24 17 -57 15 -129 -7z"/>
<path d="M2995 1307 c-27 -21 -12 -34 64 -57 74 -22 108 -25 130 -11 26 17 2
40 -65 60 -77 25 -103 26 -129 8z"/>
<path d="M2052 1090 c-12 -12 -22 -23 -22 -26 0 -21 27 -45 60 -55 38 -12 40
-14 34 -44 -5 -28 -2 -35 24 -54 17 -11 35 -21 42 -21 8 0 9 -6 5 -17 -16 -38
-10 -56 25 -77 30 -18 56 -21 172 -24 171 -5 187 12 20 21 -124 6 -172 17
-172 41 0 28 23 34 100 24 103 -13 247 -5 288 16 39 20 40 30 5 53 -38 25
-210 25 -316 -1 -93 -23 -132 -16 -132 24 l0 24 200 1 c166 0 206 3 238 17 43
20 46 32 15 52 -70 45 -263 39 -444 -15 -33 -10 -48 -10 -73 0 -31 13 -40 34
-21 46 17 10 11 35 -8 35 -10 0 -28 -9 -40 -20z m534 -58 c34 -19 -11 -27
-168 -30 -105 -3 -158 -1 -158 6 0 33 274 53 326 24z m11 -128 c6 -18 -33 -24
-147 -24 -113 0 -163 13 -94 25 21 4 44 8 49 10 25 9 189 -1 192 -11z"/>
<path d="M1953 702 l-73 -3 0 -110 0 -111 178 4 c194 5 258 18 306 63 35 32
33 79 -4 106 -53 39 -212 59 -407 51z m228 -33 c60 -13 89 -40 89 -83 0 -60
-65 -89 -190 -84 l-75 3 -3 87 c-2 76 -1 87 15 90 26 6 110 -1 164 -13z"/>
<path d="M2583 700 c-70 -10 -118 -31 -133 -60 -6 -11 -10 -51 -8 -88 l3 -67
58 -3 57 -3 0 47 0 46 33 -6 c17 -3 56 -8 85 -12 57 -7 82 -24 82 -55 0 -16 7
-19 54 -19 30 0 57 3 59 8 9 14 -12 50 -32 57 -27 8 -17 25 15 25 14 0 43 9
64 20 66 34 47 75 -45 99 -58 15 -221 21 -292 11z m208 -21 c61 -21 73 -65 23
-88 -34 -15 -193 -14 -224 2 -47 24 -35 69 24 86 45 13 137 13 177 0z"/>
<path d="M3010 695 c-1 -5 -1 -55 -2 -110 l-1 -100 174 0 c154 0 179 2 214 20
25 12 41 28 43 41 3 21 -5 26 -73 49 -18 6 -17 8 11 20 61 25 52 57 -20 76
-53 14 -346 18 -346 4z m288 -27 c38 -32 -11 -58 -108 -58 -64 0 -70 2 -70 21
0 11 5 30 11 41 10 19 17 20 82 13 40 -4 78 -11 85 -17z m-8 -91 c42 -15 47
-45 10 -64 -32 -16 -152 -17 -168 -1 -13 13 -16 60 -5 71 11 11 125 7 163 -6z"/>
<path d="M1382 685 c-68 -21 -72 -27 -72 -121 l0 -84 55 0 c45 0 55 3 56 18 1
9 2 24 3 32 2 8 3 23 4 33 2 15 16 17 142 17 l140 0 0 -50 0 -50 60 0 61 0 -3
81 c-3 75 -5 84 -29 101 -14 11 -43 23 -65 28 -60 14 -302 11 -352 -5z m302
-19 c16 -10 26 -26 26 -41 l0 -25 -145 0 c-133 0 -145 1 -145 18 0 29 23 53
60 62 54 14 175 6 204 -14z"/>
</g>
</svg>
