<?xml version="1.0" standalone="no"?>
<!DOCTYPE svg PUBLIC "-//W3C//DTD SVG 20010904//EN"
 "http://www.w3.org/TR/2001/REC-SVG-20010904/DTD/svg10.dtd">
<svg version="1.0" xmlns="http://www.w3.org/2000/svg"
 width="1586.000000pt" height="909.000000pt" viewBox="0 0 1586.000000 909.000000"
 preserveAspectRatio="xMidYMid meet">

<g transform="translate(0.000000,909.000000) scale(0.100000,-0.100000)"
fill="#000000" stroke="none">
<path d="M7083 7568 c-29 -5 -53 -14 -53 -20 0 -9 138 -744 374 -1987 19 -101
37 -185 38 -187 2 -2 14 -1 26 3 16 4 21 11 17 27 -2 11 -80 506 -172 1099
-92 592 -169 1076 -172 1076 -4 -1 -30 -6 -58 -11z"/>
<path d="M8426 7559 c-3 -8 -12 -59 -20 -114 -9 -55 -56 -352 -106 -660 -50
-308 -120 -740 -155 -960 -36 -220 -67 -410 -70 -421 -4 -17 1 -23 23 -27 15
-3 28 -5 28 -4 1 1 48 243 103 537 56 294 149 784 207 1088 58 305 104 555
102 557 -2 2 -27 7 -56 11 -40 5 -53 3 -56 -7z"/>
<path d="M5768 7096 c-21 -12 -40 -25 -44 -28 -3 -4 62 -120 144 -260 82 -139
246 -417 364 -618 118 -201 291 -493 383 -650 93 -157 182 -308 198 -337 28
-47 32 -50 53 -41 13 6 22 14 20 17 -6 10 -631 1155 -854 1564 -113 207 -211
377 -216 376 -6 0 -28 -11 -48 -23z"/>
<path d="M9688 7007 c-232 -419 -436 -789 -623 -1127 -120 -217 -258 -465
-305 -550 l-87 -155 25 -13 c13 -8 28 -10 32 -5 6 7 214 360 595 1013 34 58
164 279 288 492 125 213 227 392 227 398 0 9 -71 50 -87 50 -4 0 -33 -46 -65
-103z"/>
<path d="M4690 6202 c-31 -37 -37 -49 -27 -57 20 -15 407 -335 790 -654 704
-584 906 -751 911 -751 3 0 10 9 16 21 10 18 6 25 -31 57 -47 41 -614 541
-755 666 -49 45 -162 144 -250 221 -87 77 -261 231 -386 342 l-227 202 -41
-47z"/>
<path d="M10715 6132 c-135 -120 -242 -214 -860 -757 -710 -625 -689 -605
-672 -623 16 -16 35 -2 503 383 93 77 213 175 265 217 177 143 823 673 950
778 17 14 15 18 -24 62 l-42 47 -120 -107z"/>
<path d="M7610 5053 c-236 -25 -503 -128 -704 -271 -97 -69 -263 -231 -334
-327 -166 -225 -276 -519 -289 -777 l-6 -118 75 0 74 0 12 114 c51 487 331
887 767 1096 207 100 388 136 626 127 199 -7 333 -39 506 -118 330 -151 596
-448 713 -794 35 -101 70 -289 70 -371 l0 -54 80 0 80 0 0 43 c0 23 -7 91 -15
150 -89 673 -620 1207 -1288 1296 -73 10 -289 12 -367 4z"/>
<path d="M3985 5014 c-9 -22 -17 -47 -18 -57 -2 -20 -77 9 1580 -592 266 -96
487 -175 492 -175 9 0 27 39 19 44 -1 1 -61 25 -133 53 -71 28 -526 210 -1010
404 -484 193 -888 354 -897 356 -12 4 -21 -6 -33 -33z"/>
<path d="M11535 5030 c-20 -8 -424 -168 -715 -282 -85 -34 -220 -87 -300 -118
-80 -31 -332 -130 -560 -220 -364 -142 -446 -175 -458 -185 -7 -6 12 -35 23
-35 6 0 367 126 801 281 434 154 897 319 1028 365 132 47 242 87 245 90 6 6
-30 114 -38 113 -3 0 -15 -4 -26 -9z"/>
<path d="M3720 3618 l0 -58 1108 2 1107 3 3 22 c3 19 -2 22 -60 27 -35 3 -162
8 -283 11 -348 8 -1659 44 -1772 48 l-103 4 0 -59z"/>
<path d="M11015 3645 c-440 -13 -934 -26 -1097 -30 l-298 -7 0 -24 0 -24 1110
0 1110 0 0 55 c0 38 -4 55 -12 54 -7 -1 -373 -12 -813 -24z"/>
<path d="M5327 3463 c-3 -4 -123 -303 -266 -663 -144 -360 -273 -669 -287
-687 -33 -43 -65 -64 -122 -78 -44 -11 -47 -14 -50 -49 l-3 -36 240 0 241 0 0
35 c0 34 -1 34 -50 41 -60 8 -96 33 -105 73 -9 40 17 142 71 281 l47 120 267
0 267 0 61 -165 c80 -212 82 -269 11 -294 -18 -6 -54 -11 -80 -11 l-49 0 0
-40 0 -40 320 0 320 0 0 40 0 40 -42 0 c-78 0 -128 46 -193 178 -29 59 -334
807 -480 1177 l-31 80 -41 3 c-23 2 -43 -1 -46 -5z m103 -576 l106 -282 -219
-3 c-121 -1 -222 0 -224 2 -3 3 46 133 108 290 62 157 115 283 118 281 3 -3
53 -133 111 -288z"/>
<path d="M6250 3435 c0 -32 2 -34 38 -40 79 -12 115 -29 137 -65 19 -34 20
-52 23 -584 2 -373 -1 -566 -8 -602 -13 -64 -49 -99 -110 -108 -22 -3 -58 -9
-80 -12 -38 -5 -40 -8 -40 -40 l0 -34 418 0 c430 0 511 6 622 41 130 41 209
88 301 179 94 94 133 155 176 275 26 75 28 91 28 240 0 155 -1 163 -33 254
-18 52 -49 122 -69 155 -81 135 -228 256 -383 315 -140 54 -211 61 -636 61
l-384 0 0 -35z m850 -80 c203 -63 328 -207 387 -450 24 -98 24 -353 0 -450
-50 -204 -184 -346 -368 -390 -35 -8 -109 -15 -165 -15 -156 0 -233 31 -277
113 -22 42 -22 44 -25 613 -3 533 -2 573 15 589 15 16 35 17 198 12 128 -4
196 -10 235 -22z"/>
<path d="M7990 3436 c0 -33 2 -35 38 -41 79 -12 115 -29 137 -65 19 -34 20
-52 23 -578 2 -344 -1 -563 -7 -600 -13 -67 -49 -108 -106 -116 -19 -4 -51 -8
-70 -11 -32 -5 -35 -9 -35 -40 l0 -35 345 0 345 0 0 34 0 34 -67 7 c-103 9
-154 32 -178 80 -18 36 -20 64 -23 303 l-4 262 53 0 c33 0 69 -8 96 -21 44
-21 55 -34 441 -529 l129 -165 192 -3 192 -2 -3 36 c-3 36 -4 37 -68 53 -120
30 -140 48 -395 354 -129 155 -235 285 -235 288 0 3 30 14 66 24 151 41 251
120 295 233 32 83 32 217 0 289 -43 97 -154 176 -306 219 -51 15 -122 18 -457
22 l-398 4 0 -36z m788 -85 c108 -48 148 -133 140 -297 -3 -74 -9 -98 -32
-141 -55 -100 -138 -134 -348 -141 l-148 -4 0 294 c0 222 3 297 13 307 9 10
50 12 167 9 136 -3 162 -7 208 -27z"/>
<path d="M9550 3436 c0 -33 2 -35 38 -41 79 -12 115 -29 137 -65 20 -34 20
-49 20 -615 0 -536 -1 -582 -18 -612 -9 -18 -28 -39 -40 -48 -18 -11 -126 -34
-169 -35 -5 0 -8 -16 -8 -36 l0 -36 478 5 c537 5 555 7 674 77 75 45 116 90
156 170 23 47 27 67 27 145 0 78 -4 97 -28 146 -36 74 -120 157 -199 196 -58
28 -87 36 -218 62 -27 5 -39 11 -30 14 8 4 40 16 71 27 89 32 175 93 209 147
38 59 50 102 50 175 0 158 -109 276 -307 330 -72 20 -108 22 -460 26 l-383 4
0 -36z m751 -80 c99 -36 151 -125 152 -261 1 -139 -39 -212 -141 -262 -54 -26
-66 -28 -209 -31 l-153 -4 0 272 c0 178 4 278 11 292 11 20 17 20 153 15 95
-3 156 -10 187 -21z m-11 -666 c69 -13 147 -49 191 -88 128 -112 140 -372 22
-484 -67 -64 -223 -99 -353 -79 -86 14 -121 30 -154 74 -39 50 -45 104 -46
355 l0 232 144 0 c79 0 167 -5 196 -10z"/>
</g>
</svg>
